HIERARCHY
ROOT reference
{
  OFFSET 0 0 0
  CHANNELS 6 Xposition Yposition Zposition Zrotation Xrotation Yrotation
  JOINT Hips
  {
    OFFSET 27.3708 87.8465 39.051
    CHANNELS 6 Xposition Yposition Zposition Zrotation Xrotation Yrotation
    JOINT Spine
    {
      OFFSET 0 7.57377 0
      CHANNELS 6 Xposition Yposition Zposition Zrotation Xrotation Yrotation
      JOINT Spine1
      {
        OFFSET 0 21.6353 0
        CHANNELS 6 Xposition Yposition Zposition Zrotation Xrotation Yrotation
        JOINT Neck
        {
          OFFSET 0 21.5464 1.95876
          CHANNELS 6 Xposition Yposition Zposition Zrotation Xrotation Yrotation
          JOINT Head
          {
            OFFSET 0 12.9308 -1.84726
            CHANNELS 6 Xposition Yposition Zposition Zrotation Xrotation Yrotation
            End Site
            {
              OFFSET 0 23.0907 0
            }
          }
        }
        JOINT LeftShoulder
        {
          OFFSET 3.70822 19.5981 -0.368577
          CHANNELS 6 Xposition Yposition Zposition Zrotation Xrotation Yrotation
          JOINT LeftArm
          {
            OFFSET 11.1726 0 0
            CHANNELS 6 Xposition Yposition Zposition Zrotation Xrotation Yrotation
            JOINT LeftForeArm
            {
              OFFSET 28.6421 0 0
              CHANNELS 6 Xposition Yposition Zposition Zrotation Xrotation Yrotation
              JOINT LeftHand
              {
                OFFSET 23.9346 0 0
                CHANNELS 6 Xposition Yposition Zposition Zrotation Xrotation Yrotation
                End Site
                {
                  OFFSET 13.8545 0 0
                }
              }
            }
          }
        }
        JOINT RightShoulder
        {
          OFFSET -3.63664 19.5981 -0.368577
          CHANNELS 6 Xposition Yposition Zposition Zrotation Xrotation Yrotation
          JOINT RightArm
          {
            OFFSET -11.1726 0 0
            CHANNELS 6 Xposition Yposition Zposition Zrotation Xrotation Yrotation
            JOINT RightForeArm
            {
              OFFSET -28.6421 0 0
              CHANNELS 6 Xposition Yposition Zposition Zrotation Xrotation Yrotation
              JOINT RightHand
              {
                OFFSET -23.9346 0 0
                CHANNELS 6 Xposition Yposition Zposition Zrotation Xrotation Yrotation
                End Site
                {
                  OFFSET -13.8545 0 0
                }
              }
            }
          }
        }
      }
    }
    JOINT LeftUpLeg
    {
      OFFSET 9.2363 0 0
      CHANNELS 6 Xposition Yposition Zposition Zrotation Xrotation Yrotation
      JOINT LeftLeg
      {
        OFFSET 0 -40.7061 0
        CHANNELS 6 Xposition Yposition Zposition Zrotation Xrotation Yrotation
        JOINT LeftFoot
        {
          OFFSET 0 -40.9975 0
          CHANNELS 6 Xposition Yposition Zposition Zrotation Xrotation Yrotation
          JOINT LeftToeBase
          {
            OFFSET 0 -6.00359 13.8545
            CHANNELS 6 Xposition Yposition Zposition Zrotation Xrotation Yrotation
            End Site
            {
              OFFSET 0 0 3.69452
            }
          }
        }
      }
    }
    JOINT RightUpLeg
    {
      OFFSET -9.2363 0 0
      CHANNELS 6 Xposition Yposition Zposition Zrotation Xrotation Yrotation
      JOINT RightLeg
      {
        OFFSET 0 -40.7061 0
        CHANNELS 6 Xposition Yposition Zposition Zrotation Xrotation Yrotation
        JOINT RightFoot
        {
          OFFSET 0 -40.9975 0
          CHANNELS 6 Xposition Yposition Zposition Zrotation Xrotation Yrotation
          JOINT RightToeBase
          {
            OFFSET 0 -6.00359 13.8545
            CHANNELS 6 Xposition Yposition Zposition Zrotation Xrotation Yrotation
            End Site
            {
              OFFSET 0 0 3.69452
            }
          }
        }
      }
    }
  }
}
MOTION
Frames:	6
Frame Time:	0.004
0 0 0 0 0 -0 17.6435 84.7567 -63.3154 -1.03527 -1.56224 96.215 0 7.57377 0 -3.11251 -0.0817425 1.01929 -7.10543e-015 21.6353 0 2.33637 -4.431 1.11194 7.10543e-015 21.5464 1.95876 -14.6552 28.0735 -25.8596 0 12.9308 -1.84726 37.1119 13.2109 -28.1971 3.70822 19.5981 -0.368577 11.2047 5.9652 -8.30345 11.1726 -1.42109e-014 1.77636e-015 -31.2965 -0.276674 5.09825 28.6421 0 -1.77636e-015 -0.837335 7.77508 1.76676 23.9346 0 3.55271e-015 13.3248 7.97671 1.63114 -3.63664 19.5981 -0.368577 -12.2333 2.0697 -7.06458 -11.1726 -2.84217e-014 -3.55271e-015 21.0536 10.5327 15.9494 -28.6421 0 0 0.251203 11.805 -6.03677 -23.9346 2.84217e-014 -5.32907e-015 -19.757 12.474 -3.85373 9.2363 0 0 5.92999 -16.7532 -1.17289 0 -40.7061 0 8.32581 34.3399 8.69585 0 -40.9975 7.10543e-015 -8.88462 -12.1538 -13.1831 0 -6.00359 13.8545 -6.89673e-033 -4.96962e-016 -7.95139e-016 -9.2363 -1.42109e-014 -3.55271e-015 -1.08169 0.212658 -0.300542 -7.10543e-015 -40.7061 0 6.05221 9.51416 3.54971 0 -40.9975 0 -23.4594 -14.4139 -18.1034 -7.10543e-015 -6.00359 13.8545 0 0 -3.97569e-016 
0 0 0 0 0 -0 17.6285 84.7459 -63.231 -1.0568 -1.64243 96.2981 0 7.57377 3.55271e-015 -3.03598 -0.0724563 1.00106 -7.10543e-015 21.6353 0 2.35915 -4.45212 1.09473 0 21.5464 1.95876 -14.59 28.04 -25.9034 0 12.9308 -1.84726 37.0188 13.1762 -28.2205 3.70822 19.5981 -0.368577 11.2084 5.97177 -8.30662 11.1726 1.42109e-014 -1.77636e-015 -31.3045 -0.239375 5.05482 28.6421 0 1.77636e-015 -0.814578 7.74668 1.72021 23.9346 0 7.10543e-015 13.4247 7.94347 1.58315 -3.63664 19.5981 -0.368577 -12.1991 2.09385 -7.11301 -11.1726 0 0 21.0255 10.5091 15.9729 -28.6421 0 3.55271e-015 0.271609 11.821 -6.0397 -23.9346 0 -3.55271e-015 -19.861 12.4971 -3.86871 9.2363 0 3.55271e-015 5.66289 -16.8696 -1.3291 1.42109e-014 -40.7061 7.10543e-015 8.26221 34.4835 8.27883 0 -40.9975 0 -9.44705 -12.3074 -12.9656 0 -6.00359 13.8545 -7.95139e-016 5.96354e-016 7.95139e-016 -9.2363 -1.42109e-014 0 -0.996588 0.169106 -0.461101 0 -40.7061 0 6.10348 9.5241 3.45933 -7.10543e-015 -40.9975 3.55271e-015 -23.1431 -14.5274 -17.8746 7.10543e-015 -6.00359 13.8545 6.89673e-033 -4.96962e-016 7.95139e-016 
0 0 0 0 0 -0 17.6128 84.7344 -63.1455 -1.09038 -1.72967 96.3796 7.10543e-015 7.57377 0 -2.9427 -0.0974836 0.969838 0 21.6353 0 2.37119 -4.43935 1.06433 1.42109e-014 21.5464 1.95876 -14.5903 28.0043 -25.92 0 12.9308 -1.84726 36.9925 13.1637 -28.2289 3.70822 19.5981 -0.368577 11.2297 6.01868 -8.29478 11.1726 -2.84217e-014 0 -31.324 -0.202997 4.98839 28.6421 0 -1.77636e-015 -0.795353 7.69402 1.69229 23.9346 0 1.77636e-015 13.5256 7.89068 1.57393 -3.63664 19.5981 -0.368577 -12.2081 2.0976 -7.09074 -11.1726 0 -3.55271e-015 21.0749 10.3676 15.9425 -28.6421 0 0 0.295513 11.8805 -6.01667 -23.9346 -2.84217e-014 -3.55271e-015 -19.7777 12.5541 -3.86412 9.2363 1.42109e-014 0 5.3953 -16.9857 -1.58162 0 -40.7061 1.42109e-014 8.07863 34.6106 8.69874 0 -40.9975 -7.10543e-015 -9.39357 -12.6702 -13.212 0 -6.00359 13.8545 7.95139e-016 -1.19271e-015 -7.95139e-016 -9.2363 0 0 -0.904602 0.10788 -0.653196 7.10543e-015 -40.7061 -3.55271e-015 6.14764 9.54853 3.46987 0 -40.9975 0 -23.0744 -14.5642 -17.7213 -7.10543e-015 -6.00359 13.8545 3.18055e-015 -1.98785e-015 -1.19271e-015 
0 0 0 0 0 -0 17.5964 84.7233 -63.0592 -1.12981 -1.81984 96.4517 0 7.57377 0 -2.86614 -0.114865 0.947623 -7.10543e-015 21.6353 0 2.40806 -4.44359 1.044 7.10543e-015 21.5464 1.95876 -14.591 27.9701 -25.9474 -7.10543e-015 12.9308 -1.84726 36.9906 13.1515 -28.2493 3.70822 19.5981 -0.368577 11.2525 6.03066 -8.28383 11.1726 1.42109e-014 -2.66454e-015 -31.3695 -0.111534 4.93611 28.6421 0 -1.77636e-015 -0.752898 7.6526 1.65078 23.9346 0 -1.77636e-015 13.5311 7.84123 1.51237 -3.63664 19.5981 -0.368577 -12.2025 2.06579 -7.09461 -11.1726 -2.84217e-014 -3.55271e-015 21.0787 10.2641 15.8999 -28.6421 -5.68434e-014 3.55271e-015 0.364731 11.9277 -5.97888 -23.9346 0 -7.10543e-015 -19.867 12.6076 -3.86441 9.2363 0 0 5.15966 -17.1018 -1.75516 1.42109e-014 -40.7061 0 7.91224 34.7351 8.736 0 -40.9975 0 -9.81059 -12.7878 -13.1819 1.42109e-014 -6.00359 13.8545 3.97569e-016 -4.96962e-017 1.59028e-015 -9.2363 1.42109e-014 -3.55271e-015 -0.803958 0.0373019 -0.85703 0 -40.7061 0 6.17708 9.57724 3.46416 0 -40.9975 -3.55271e-015 -23.1353 -14.5981 -17.5472 0 -6.00359 13.8545 3.18055e-015 4.07509e-015 7.95139e-016 
0 0 0 0 0 -0 17.5824 84.7133 -62.9738 -1.16967 -1.90915 96.5211 0 7.57377 -7.10543e-015 -2.80473 -0.126129 0.925102 -7.10543e-015 21.6353 0 2.47463 -4.47306 1.02484 -7.10543e-015 21.5464 1.95876 -14.6259 27.9531 -25.9585 0 12.9308 -1.84726 37.0082 13.1537 -28.2634 3.70822 19.5981 -0.368577 11.2458 6.05146 -8.29234 11.1726 0 8.88178e-016 -31.4026 0.0374319 4.9213 28.6421 0 0 -0.728716 7.56036 1.59183 23.9346 -2.84217e-014 1.77636e-015 13.6604 7.74269 1.45067 -3.63664 19.5981 -0.368577 -12.196 2.07404 -7.08843 -11.1726 -2.84217e-014 0 21.1874 9.50205 15.8755 -28.6421 0 0 0.529477 12.2555 -6.02086 -23.9346 -2.84217e-014 -3.55271e-015 -20.0219 12.9191 -3.69465 9.2363 0 0 4.91981 -17.2177 -1.86553 0 -40.7061 -7.10543e-015 7.79265 34.8538 8.97877 0 -40.9975 0 -10.1296 -12.8969 -13.4178 0 -6.00359 13.8545 -7.95139e-016 -1.39149e-015 -1.59028e-015 -9.2363 -1.42109e-014 0 -0.706989 -0.0279065 -1.03929 0 -40.7061 0 6.21488 9.60558 3.57786 0 -40.9975 0 -22.8533 -14.6514 -17.4795 0 -6.00359 13.8545 -6.36111e-015 -8.94531e-016 -3.97569e-016 
0 0 0 0 0 -0 17.5689 84.7031 -62.8907 -1.20652 -1.99092 96.5774 0 7.57377 -7.10543e-015 -2.74855 -0.128762 0.911103 -7.10543e-015 21.6353 0 2.53155 -4.51869 1.01417 1.42109e-014 21.5464 1.95876 -14.6233 27.9713 -25.9754 0 12.9308 -1.84726 36.9972 13.1062 -28.268 3.70822 19.5981 -0.368577 11.2523 6.05201 -8.30461 11.1726 1.42109e-014 -8.88178e-016 -31.4312 0.116408 4.90948 28.6421 0 -1.77636e-015 -0.710924 7.52317 1.54697 23.9346 -2.84217e-014 0 13.7473 7.69762 1.37967 -3.63664 19.5981 -0.368577 -12.1677 2.19244 -7.14928 -11.1726 -5.68434e-014 0 21.2026 9.15932 15.9733 -28.6421 0 -3.55271e-015 0.573346 12.3345 -6.05584 -23.9346 0 -1.77636e-015 -20.0802 12.9887 -3.6162 9.2363 0 0 4.69104 -17.3155 -1.96055 -1.42109e-014 -40.7061 0 7.66704 34.9445 8.99726 1.42109e-014 -40.9975 0 -10.413 -13.0744 -13.4461 0 -6.00359 13.8545 -3.97569e-016 -1.49089e-016 7.95139e-016 -9.2363 0 -7.10543e-015 -0.626935 -0.0782918 -1.14658 0 -40.7061 -3.55271e-015 6.28571 9.6154 3.69816 -7.10543e-015 -40.9975 -3.55271e-015 -22.79 -14.6124 -17.4978 0 -6.00359 13.8545 -3.18055e-015 -6.95746e-016 -1.19271e-015 
